Crispy Extended Medium-MinGrade.ufo
<glyph name="parenleft" format="2">
  <advance width="1127"/>
  <unicode hex="0028"/>
  <outline>
    <contour>
      <point x="178" y="0" type="line"/>
      <point x="567" y="0" type="line"/>
      <point x="567" y="1242" type="line"/>
      <point x="670" y="1438" type="line"/>
      <point x="1088" y="1438" type="line"/>
      <point x="1088" y="1746" type="line"/>
      <point x="417" y="1746" type="line"/>
      <point x="178" y="1232" type="line"/>
    </contour>
  </outline>
</glyph>
<glyph name="three" format="2">
  <advance width="2746"/>
  <unicode hex="0033"/>
  <outline>
    <contour>
      <point x="211" y="0" type="line"/>
      <point x="2558" y="0" type="line"/>
      <point x="2558" y="937" type="line"/>
      <point x="2216" y="937" type="line"/>
      <point x="2393" y="1159" type="line"/>
      <point x="2393" y="1600" type="line"/>
      <point x="305" y="1600" type="line"/>
      <point x="305" y="1009" type="line"/>
      <point x="709" y="1009" type="line"/>
      <point x="709" y="1298" type="line"/>
      <point x="1989" y="1298" type="line"/>
      <point x="1989" y="1159" type="line"/>
      <point x="1828" y="954" type="line"/>
      <point x="1038" y="954" type="line"/>
      <point x="1038" y="671" type="line"/>
      <point x="2154" y="671" type="line"/>
      <point x="2154" y="302" type="line"/>
      <point x="615" y="302" type="line"/>
      <point x="615" y="611" type="line"/>
      <point x="211" y="611" type="line"/>
    </contour>
  </outline>
</glyph>
<glyph name="five" format="2">
  <advance width="2704"/>
  <unicode hex="0035"/>
  <outline>
    <contour>
      <point x="254" y="0" type="line"/>
      <point x="2508" y="0" type="line"/>
      <point x="2508" y="979" type="line"/>
      <point x="658" y="979" type="line"/>
      <point x="658" y="1304" type="line"/>
      <point x="2508" y="1304" type="line"/>
      <point x="2508" y="1600" type="line"/>
      <point x="254" y="1600" type="line"/>
      <point x="254" y="691" type="line"/>
      <point x="2104" y="691" type="line"/>
      <point x="2104" y="296" type="line"/>
      <point x="659" y="296" type="line"/>
      <point x="659" y="595" type="line"/>
      <point x="254" y="595" type="line"/>
    </contour>
  </outline>
</glyph>
<glyph name="eight" format="2">
  <advance width="2712"/>
  <unicode hex="0038"/>
  <outline>
    <contour>
      <point x="176" y="0" type="line"/>
      <point x="2536" y="0" type="line"/>
      <point x="2536" y="618" type="line"/>
      <point x="2281" y="787" type="line"/>
      <point x="2281" y="823" type="line"/>
      <point x="2493" y="823" type="line"/>
      <point x="2493" y="1600" type="line"/>
      <point x="216" y="1600" type="line"/>
      <point x="216" y="986" type="line"/>
      <point x="432" y="817" type="line"/>
      <point x="432" y="787" type="line"/>
      <point x="176" y="787" type="line"/>
    </contour>
    <contour>
      <point x="580" y="297" type="line"/>
      <point x="580" y="661" type="line"/>
      <point x="1942" y="662" type="line"/>
      <point x="2132" y="530" type="line"/>
      <point x="2132" y="297" type="line"/>
    </contour>
    <contour>
      <point x="788" y="950" type="line"/>
      <point x="600" y="1090" type="line"/>
      <point x="600" y="1303" type="line"/>
      <point x="2100" y="1303" type="line"/>
      <point x="2100" y="951" type="line"/>
    </contour>
  </outline>
</glyph>
<glyph name="greater" format="2">
  <advance width="1347"/>
  <unicode hex="003E"/>
  <outline>
    <contour>
      <point x="210" y="144" type="line"/>
      <point x="1299" y="576" type="line"/>
      <point x="1299" y="874" type="line"/>
      <point x="206" y="1314" type="line"/>
      <point x="125" y="1059" type="line"/>
      <point x="1006" y="728" type="line"/>
      <point x="1006" y="721" type="line"/>
      <point x="128" y="396" type="line"/>
    </contour>
  </outline>
</glyph>
<glyph name="B" format="2">
  <advance width="2854"/>
  <unicode hex="0042"/>
  <outline>
    <contour>
      <point x="279" y="0" type="line"/>
      <point x="2405" y="0" type="line"/>
      <point x="2705" y="415" type="line"/>
      <point x="2705" y="936" type="line"/>
      <point x="2198" y="936" type="line"/>
      <point x="2380" y="1142" type="line"/>
      <point x="2380" y="1600" type="line"/>
      <point x="279" y="1600" type="line"/>
    </contour>
    <contour>
      <point x="682" y="302" type="line"/>
      <point x="682" y="655" type="line"/>
      <point x="2301" y="655" type="line"/>
      <point x="2301" y="494" type="line"/>
      <point x="2152" y="302" type="line"/>
    </contour>
    <contour>
      <point x="682" y="944" type="line"/>
      <point x="682" y="1298" type="line"/>
      <point x="1978" y="1298" type="line"/>
      <point x="1978" y="1160" type="line"/>
      <point x="1793" y="944" type="line"/>
    </contour>
  </outline>
</glyph>
<glyph name="E" format="2">
  <advance width="2544"/>
  <unicode hex="0045"/>
  <outline>
    <contour>
      <point x="280" y="0" type="line"/>
      <point x="2322" y="0" type="line"/>
      <point x="2322" y="302" type="line"/>
      <point x="683" y="302" type="line"/>
      <point x="683" y="661" type="line"/>
      <point x="1971" y="661" type="line"/>
      <point x="1971" y="952" type="line"/>
      <point x="683" y="952" type="line"/>
      <point x="683" y="1298" type="line"/>
      <point x="2315" y="1298" type="line"/>
      <point x="2315" y="1600" type="line"/>
      <point x="280" y="1600" type="line"/>
    </contour>
  </outline>
</glyph>
<glyph name="M" format="2">
  <advance width="3641"/>
  <unicode hex="004D"/>
  <outline>
    <contour>
      <point x="1458" y="139" type="line"/>
      <point x="779" y="1310" type="line"/>
      <point x="694" y="1310" type="line"/>
      <point x="694" y="0" type="line"/>
      <point x="291" y="0" type="line"/>
      <point x="291" y="1600" type="line"/>
      <point x="1071" y="1600" type="line"/>
      <point x="1720" y="446" type="line"/>
      <point x="1922" y="446" type="line"/>
      <point x="2574" y="1600" type="line"/>
      <point x="3350" y="1600" type="line"/>
      <point x="3350" y="0" type="line"/>
      <point x="2947" y="0" type="line"/>
      <point x="2947" y="1310" type="line"/>
      <point x="2858" y="1310" type="line"/>
      <point x="2180" y="139" type="line"/>
    </contour>
  </outline>
</glyph>
<glyph name="O" format="2">
  <advance width="2770"/>
  <unicode hex="004F"/>
  <outline>
    <contour>
      <point x="2588" y="436" type="line"/>
      <point x="2588" y="1600" type="line"/>
      <point x="498" y="1600" type="line"/>
      <point x="185" y="1160" type="line"/>
      <point x="185" y="0" type="line"/>
      <point x="2275" y="0" type="line"/>
    </contour>
    <contour>
      <point x="2183" y="517" type="line"/>
      <point x="2018" y="308" type="line"/>
      <point x="589" y="308" type="line"/>
      <point x="589" y="1079" type="line"/>
      <point x="754" y="1292" type="line"/>
      <point x="2183" y="1292" type="line"/>
    </contour>
  </outline>
</glyph>
<glyph name="bracketleft" format="2">
  <advance width="1263"/>
  <unicode hex="005B"/>
  <outline>
    <contour>
      <point x="666" y="1438" type="line"/>
      <point x="1186" y="1438" type="line"/>
      <point x="1186" y="1746" type="line"/>
      <point x="277" y="1746" type="line"/>
      <point x="277" y="-146" type="line"/>
      <point x="1181" y="-146" type="line"/>
      <point x="1181" y="162" type="line"/>
      <point x="666" y="162" type="line"/>
    </contour>
  </outline>
</glyph>
<glyph name="f" format="2">
  <advance width="1682"/>
  <unicode hex="0066"/>
  <outline>
    <contour>
      <point x="370" y="0" type="line"/>
      <point x="370" y="1388" type="line"/>
      <point x="679" y="1779" type="line"/>
      <point x="1687" y="1779" type="line"/>
      <point x="1687" y="1494" type="line"/>
      <point x="924" y="1494" type="line"/>
      <point x="772" y="1303" type="line"/>
      <point x="772" y="0" type="line"/>
    </contour>
    <contour>
      <point x="90" y="836" type="line"/>
      <point x="90" y="1122" type="line"/>
      <point x="594" y="1122" type="line"/>
      <point x="708" y="838" type="line"/>
      <point x="961" y="1124" type="line"/>
      <point x="1611" y="1124" type="line"/>
      <point x="1611" y="836" type="line"/>
    </contour>
  </outline>
</glyph>
<glyph name="i" format="2">
  <advance width="783"/>
  <unicode hex="0069"/>
  <outline>
    <contour>
      <point x="190" y="0" type="line"/>
      <point x="585" y="0" type="line"/>
      <point x="585" y="1200" type="line"/>
      <point x="190" y="1200" type="line"/>
    </contour>
    <contour>
      <point x="190" y="1295" type="line"/>
      <point x="593" y="1295" type="line"/>
      <point x="593" y="1575" type="line"/>
      <point x="190" y="1575" type="line"/>
    </contour>
  </outline>
</glyph>
<glyph name="l" format="2">
  <advance width="775"/>
  <unicode hex="006C"/>
  <outline>
    <contour>
      <point x="186" y="0" type="line"/>
      <point x="589" y="0" type="line"/>
      <point x="589" y="1779" type="line"/>
      <point x="186" y="1779" type="line"/>
    </contour>
  </outline>
</glyph>
<glyph name="p" format="2">
  <advance width="2270"/>
  <unicode hex="0070"/>
  <outline>
    <contour>
      <point x="128" y="-300" type="line"/>
      <point x="530" y="-300" type="line"/>
      <point x="530" y="0" type="line"/>
      <point x="1796" y="0" type="line"/>
      <point x="2113" y="391" type="line"/>
      <point x="2113" y="1200" type="line"/>
      <point x="445" y="1200" type="line"/>
      <point x="128" y="809" type="line"/>
    </contour>
    <contour>
      <point x="530" y="285" type="line"/>
      <point x="531" y="731" type="line"/>
      <point x="684" y="915" type="line"/>
      <point x="1710" y="915" type="line"/>
      <point x="1710" y="469" type="line"/>
      <point x="1557" y="285" type="line"/>
    </contour>
  </outline>
</glyph>
<glyph name="r" format="2">
  <advance width="1520"/>
  <unicode hex="0072"/>
  <outline>
    <contour>
      <point x="1511" y="887" type="line"/>
      <point x="728" y="887" type="line"/>
      <point x="549" y="671" type="line"/>
      <point x="549" y="0" type="line"/>
      <point x="147" y="0" type="line"/>
      <point x="147" y="774" type="line"/>
      <point x="497" y="1200" type="line"/>
      <point x="1511" y="1200" type="line"/>
    </contour>
  </outline>
</glyph>
<glyph name="s" format="2">
  <advance width="2071"/>
  <unicode hex="0073"/>
  <outline>
    <contour>
      <point x="157" y="0" type="line"/>
      <point x="1610" y="0" type="line"/>
      <point x="1925" y="383" type="line"/>
      <point x="1925" y="754" type="line"/>
      <point x="558" y="754" type="line"/>
      <point x="558" y="735" type="line"/>
      <point x="708" y="916" type="line"/>
      <point x="1892" y="916" type="line"/>
      <point x="1892" y="1200" type="line"/>
      <point x="473" y="1200" type="line"/>
      <point x="158" y="811" type="line"/>
      <point x="158" y="476" type="line"/>
      <point x="1526" y="476" type="line"/>
      <point x="1526" y="460" type="line"/>
      <point x="1374" y="282" type="line"/>
      <point x="157" y="282" type="line"/>
    </contour>
  </outline>
</glyph>
<glyph name="ordfeminine" format="2">
  <advance width="1030"/>
  <unicode hex="00AA"/>
  <outline>
    <contour>
      <point x="765" y="1261" type="line" smooth="yes"/>
      <point x="77" y="1261" type="line"/>
      <point x="77" y="837" type="line" smooth="yes"/>
      <point x="268" y="837" type="line" smooth="yes"/>
      <point x="268" y="1131" type="line" smooth="yes"/>
      <point x="765" y="1131" type="line" smooth="yes"/>
      <point x="765" y="837" type="line" smooth="yes"/>
      <point x="955" y="837" type="line" smooth="yes"/>
      <point x="955" y="1600" type="line" smooth="yes"/>
      <point x="77" y="1600" type="line" smooth="yes"/>
      <point x="77" y="1339" type="line"/>
      <point x="268" y="1339" type="line"/>
      <point x="268" y="1469" type="line" smooth="yes"/>
      <point x="765" y="1469" type="line" smooth="yes"/>
    </contour>
    <contour>
      <point x="266" y="968" type="line"/>
      <point x="266" y="837" type="line"/>
      <point x="765" y="837" type="line"/>
      <point x="765" y="968" type="line"/>
    </contour>
  </outline>
</glyph>
<glyph name="micro" format="2">
  <advance width="2223"/>
  <unicode hex="00B5"/>
  <outline>
    <contour>
      <point x="196" y="-496" type="line"/>
      <point x="607" y="-496" type="line"/>
      <point x="607" y="2" type="line"/>
      <point x="1625" y="224" type="line"/>
      <point x="1713" y="0" type="line"/>
      <point x="2027" y="0" type="line"/>
      <point x="2027" y="1290" type="line"/>
      <point x="1624" y="1290" type="line"/>
      <point x="1624" y="285" type="line"/>
      <point x="598" y="285" type="line"/>
      <point x="598" y="1290" type="line"/>
      <point x="196" y="1290" type="line"/>
    </contour>
  </outline>
</glyph>
<glyph name="figuredash" format="2">
  <advance width="2537"/>
  <unicode hex="2012"/>
  <outline>
    <contour>
      <point x="70" y="652" type="line"/>
      <point x="2466" y="652" type="line"/>
      <point x="2466" y="946" type="line"/>
      <point x="70" y="946" type="line"/>
    </contour>
  </outline>
</glyph>
<glyph name="quoteleft" format="2">
  <advance width="594"/>
  <unicode hex="2018"/>
  <outline>
    <contour>
      <point x="504" y="1600" type="line"/>
      <point x="225" y="1600" type="line"/>
      <point x="60" y="1019" type="line"/>
      <point x="465" y="1019" type="line"/>
    </contour>
  </outline>
</glyph>
<glyph name="euro" format="2">
  <advance width="2624"/>
  <unicode hex="20AC"/>
  <outline>
    <contour>
      <point x="1633" y="460" type="line"/>
      <point x="1633" y="707" type="line"/>
      <point x="139" y="707" type="line"/>
      <point x="139" y="460" type="line"/>
    </contour>
    <contour>
      <point x="1633" y="780" type="line"/>
      <point x="1633" y="1026" type="line"/>
      <point x="139" y="1026" type="line"/>
      <point x="139" y="780" type="line"/>
    </contour>
    <contour>
      <point x="802" y="1600" type="line"/>
      <point x="496" y="1168" type="line"/>
      <point x="496" y="0" type="line"/>
      <point x="2487" y="0" type="line"/>
      <point x="2487" y="603" type="line"/>
      <point x="2082" y="603" type="line"/>
      <point x="2082" y="307" type="line"/>
      <point x="898" y="307" type="line"/>
      <point x="898" y="1079" type="line"/>
      <point x="1065" y="1293" type="line"/>
      <point x="2083" y="1293" type="line"/>
      <point x="2083" y="997" type="line"/>
      <point x="2488" y="997" type="line"/>
      <point x="2488" y="1600" type="line"/>
    </contour>
  </outline>
</glyph>
<glyph name="eight.smol" format="2">
  <advance width="1932"/>
  <outline>
    <contour>
      <point x="127" y="0" type="line"/>
      <point x="1805" y="0" type="line"/>
      <point x="1805" y="441" type="line"/>
      <point x="1623" y="561" type="line"/>
      <point x="1623" y="587" type="line"/>
      <point x="1774" y="587" type="line"/>
      <point x="1774" y="1140" type="line"/>
      <point x="156" y="1140" type="line"/>
      <point x="156" y="703" type="line"/>
      <point x="311" y="582" type="line"/>
      <point x="311" y="561" type="line"/>
      <point x="127" y="561" type="line"/>
    </contour>
    <contour>
      <point x="415" y="212" type="line"/>
      <point x="415" y="471" type="line"/>
      <point x="1382" y="471" type="line"/>
      <point x="1517" y="378" type="line"/>
      <point x="1517" y="212" type="line"/>
    </contour>
    <contour>
      <point x="563" y="677" type="line"/>
      <point x="429" y="777" type="line"/>
      <point x="429" y="929" type="line"/>
      <point x="1495" y="929" type="line"/>
      <point x="1495" y="677" type="line"/>
    </contour>
  </outline>
</glyph>
